PathFileType	4	(X/Y/Z)	Patient4_TMGait_0pt3_01_right_05.trc.trc
DataRate	CameraRate	NumFrames	NumMarkers	Units	OrigDataRate	OrigDataStartFrame	OrigNumFrames
52.044609665428	52.044609665428	4	33	mm	52.044609665428	1	       141
Frame#	Time	Sacral			L.Shoulder			Chest			R.Shoulder			Neck			R.ASIS			L.ASIS			R.Thigh.Superior			R.Thigh.Lateral			R.Thigh.Inferior			R.Patella			L.Thigh.Superior			L.Thigh.Lateral			L.Thigh.Inferior			L.Patella			L.Shank.Superior			L.Shank.Lateral			L.Shank.Inferior			R.Shank.Superior			R.Shank.Lateral			R.Shank.Inferior			R.Heel			R.Midfoot.Superior			R.Midfoot.Lateral			R.Toe			L.Heel			L.Midfoot.Lateral			L.Midfoot.Superior			L.Toe			L.Elbow			L.Wrist			R.Elbow			R.Wrist			
		X1	Y1	Z1	X2	Y2	Z2	X3	Y3	Z3	X4	Y4	Z4	X5	Y5	Z5	X6	Y6	Z6	X7	Y7	Z7	X8	Y8	Z8	X9	Y9	Z9	X10	Y10	Z10	X11	Y11	Z11	X12	Y12	Z12	X13	Y13	Z13	X14	Y14	Z14	X15	Y15	Z15	X16	Y16	Z16	X17	Y17	Z17	X18	Y18	Z18	X19	Y19	Z19	X20	Y20	Z20	X21	Y21	Z21	X22	Y22	Z22	X23	Y23	Z23	X24	Y24	Z24	X25	Y25	Z25	X26	Y26	Z26	X27	Y27	Z27	X28	Y28	Z28	X29	Y29	Z29	X30	Y30	Z30	X31	Y31	Z31	X32	Y32	Z32	X33	Y33	Z33	

1	7.780000000000	834.738149729146	993.658820022608	438.445845493941	1015.447955459412	1422.443038704631	257.734950139364	1105.515534847338	1359.935271503501	428.272541311859	1008.317396492468	1435.367710850155	593.307330959861	989.232690130517	1487.991494766672	409.209648584789	1058.044962645329	936.560100272452	571.358344770659	1060.906865513143	953.963039647811	296.119079971626	1106.608262678438	735.446614209492	557.796881473362	1028.533209996322	626.009875323754	622.600943392494	1115.627778354309	566.478668054609	556.107987930309	1106.521127915700	457.133000492330	582.495645898391	1118.802609910033	747.229974066743	337.496169030555	1039.146081512180	622.225041738967	279.523037285247	1125.123670228327	551.311592963154	349.846941710059	1127.979492262458	477.479272369917	359.876842891789	1089.335805774183	404.153582518153	355.967876439489	987.241663794997	299.177003525798	306.749865757637	1020.585064215341	186.165319896976	383.833159244898	1025.456971876623	392.286996983888	584.370270187050	897.564788526380	360.449402761090	634.111982225220	884.652080425957	249.259140951115	588.553273271557	684.176558384613	189.106908467930	541.312269797757	847.806679169949	135.183553892427	605.775636527712	735.029547439391	137.155146124680	625.406312270161	908.947671651904	30.358385458749	648.303696739867	876.955350927793	39.500597083920	427.796180312598	951.346361340730	36.413857860032	347.624932814401	1035.791430758724	95.676932828047	375.427795423564	1163.385017017457	41.115730755523	347.457860930259	1082.396966615697	1083.299210523884	124.358653959516	1262.087378560682	893.558990203693	122.735702785602	996.066450900228	1087.571926703949	722.538421102900	1120.535147111039	857.708371214926	742.687468415229	
2	7.799214285714	833.068131902828	990.918043612832	436.166907970465	1016.346933991845	1420.646592601040	257.742882624221	1103.815026871295	1357.922259726888	429.432417353408	1004.199805351776	1432.759658037540	593.261338738544	988.011446822506	1485.990216814127	408.967882617867	1055.836945089482	934.893774329617	570.247283206935	1060.432152876136	952.261442864669	295.068774479061	1109.114681708756	736.566853837555	557.007201448118	1033.719962829041	625.519624295013	622.011605979537	1122.561256338674	567.923235720570	555.523518153324	1115.407817820456	457.718613643728	581.958032330697	1118.300742174704	745.403461519915	336.177292335549	1039.287133493762	620.209038426698	278.809035146786	1125.152583969232	549.549038654636	349.580527068287	1127.979282064916	475.507867199716	359.959813470283	1088.355309192288	402.029065262353	356.124336208532	985.077084873829	298.326568768750	306.815636766178	1016.469112247370	185.096208745076	384.103184432836	1033.769507928168	392.624954432229	583.456553922833	904.931145701857	362.176863735641	631.817049431387	891.349248543030	251.040917697249	586.496895899590	690.554283426115	192.226593575352	537.601996450515	853.521239096187	137.563031335256	603.547415223676	740.506659365905	140.209933652062	622.329918178821	913.700739328614	31.627043101347	647.015705880554	871.069478348659	39.510355071900	427.713027280309	945.473038466201	36.409287315738	347.556290057510	1030.065075411472	95.547827685116	375.488790575154	1157.512442422387	41.020803387233	347.351321865464	1088.886516014382	1082.809083742974	124.458433847554	1273.339035863019	897.942454228690	125.238231090259	976.866572949785	1086.483441689632	720.007080565755	1083.871764966735	850.320165178556	742.030799767574	
3	7.818428571429	831.374991107492	988.336257937532	433.869736815786	1017.287076584231	1418.970798519822	257.845706515510	1102.094698584656	1356.054054537223	430.711659221456	999.983057193946	1430.303877827919	593.272632965761	986.779927906462	1484.115916767491	408.805095480217	1053.515144615341	933.347206690427	569.267460470573	1060.021898823781	950.669170367899	294.168831034916	1111.503557595008	737.873677323328	556.177324365212	1038.944178443109	625.213682096038	621.365618465206	1129.429999099839	569.619258893653	554.770244525347	1124.383774530596	458.614863987815	581.278153749785	1117.700326702591	743.603273007940	335.105765576026	1039.248143243338	618.274116853552	278.222380556836	1124.844524514516	547.808662439487	349.520083117397	1127.576402776454	473.597524021103	360.257675390436	1087.025193954956	399.974741986175	356.421144902762	982.667310643916	297.482568038920	306.934919251472	1012.142689837732	184.051035437613	384.439150981809	1042.325385976450	393.111743661615	582.469944962718	912.634156141037	363.667210706605	629.575687681694	898.637425326143	252.528440307694	584.479970507037	697.578315481459	194.439477891200	534.099137770165	860.139064010716	139.586569215369	601.423476608739	746.857975574730	142.537637665929	619.430219884065	919.740869325552	32.779294681251	645.808179411796	865.019128298466	39.497119780182	427.633081405868	939.446322611411	36.397802680403	347.488392313737	1024.173258878536	95.418836069222	375.568029346870	1151.486313451556	40.950602725632	347.254246541290	1095.352228613240	1082.431318470572	124.696982263801	1284.771286492374	902.721266206484	127.999695930418	957.138731704475	1085.836476372157	717.303268951107	1046.577578598365	843.672859780044	741.185023816035	
4	7.837642857143	829.699197254490	986.107602124074	431.622954300724	1018.287785722474	1417.553318933844	258.101334165598	1100.407335536561	1354.483968811692	432.146508653184	995.752846877485	1428.186780758410	593.371820904677	985.584188048030	1482.513785944063	408.773435780451	1051.085256426150	932.057415343613	568.528793087437	1059.713139653063	949.312929689152	293.541169432882	1113.619463544154	739.439275674379	555.338912710728	1044.014920455877	625.213316325120	620.679397092141	1135.947872888836	571.648841673686	553.829721866943	1133.162670452535	459.966324843224	580.434573274829	1116.934517254055	741.908382081224	334.431304871376	1038.887286164093	616.544871532482	277.837759912611	1123.983344766895	546.169762550548	349.752591201986	1126.520680237748	471.854909334256	360.842758485109	1085.159484099474	398.113930521465	356.897424729307	979.916654594097	296.690284835856	307.121541439563	1007.606450456070	183.088735717631	384.850456556592	1050.959978863750	393.829927269205	581.434029125190	920.621851895943	364.747746724318	627.513249288005	906.646108672989	253.537565624566	582.614217060974	705.488258935016	195.180344595091	531.044399246025	868.005162409136	141.023372971758	599.540523482715	754.459228335694	143.681052624938	616.909877232978	927.639324102217	33.773937968593	644.766129560797	858.903282954268	39.454366711673	427.559337245103	933.366096800036	36.377818986249	347.423178153194	1018.206761445007	95.296594159046	375.666657404000	1145.407109761684	40.916452337697	347.173580785780	1101.597890979444	1082.264996582578	125.137649901959	1296.128380130506	908.017685657447	131.086490814129	937.292347823300	1085.904956753837	714.434431922937	1009.574268193209	838.370183747537	740.086129092586	
